<svg width="134" height="54" viewBox="0 0 134 54" fill="none" xmlns="http://www.w3.org/2000/svg">
<path d="M3.7048 13.134C3.7048 13.7479 3.78746 14.3142 3.95118 14.8327C4.1165 15.3545 4.35175 15.8094 4.6633 16.1991C4.97326 16.5888 5.34839 16.891 5.78552 17.1041C6.22423 17.3173 6.72653 17.4239 7.29082 17.4239C8.35105 17.4239 9.21258 17.0803 9.88019 16.3947C10.5462 15.706 10.88 14.6212 10.88 13.134C10.88 11.8535 10.5685 10.8196 9.94854 10.0291C9.32703 9.24011 8.44324 8.84405 7.29082 8.84405C6.78057 8.84405 6.30689 8.92517 5.86818 9.08105C5.43105 9.24012 5.05115 9.49461 4.73165 9.84773C4.41215 10.2009 4.161 10.6462 3.97821 11.1854C3.797 11.7247 3.7048 12.3736 3.7048 13.134ZM0.0361328 13.134C0.0361328 11.9648 0.209393 10.9262 0.555914 10.0147C0.902435 9.10491 1.39519 8.33505 2.03419 7.70198C2.67319 7.0721 3.43617 6.59332 4.32155 6.26883C5.20692 5.94435 6.19721 5.7821 7.29082 5.7821C8.44324 5.7821 9.47009 5.95707 10.3714 6.31019C11.2758 6.6649 12.0388 7.15958 12.6571 7.79901C13.2802 8.44162 13.7491 9.21785 14.0702 10.1261C14.3881 11.0359 14.5487 12.0396 14.5487 13.134C14.5487 14.3062 14.3738 15.3449 14.0273 16.2548C13.6808 17.1646 13.188 17.9345 12.5506 18.5675C11.91 19.1974 11.1486 19.6778 10.2633 20.0023C9.37789 20.3267 8.38761 20.489 7.29082 20.489C6.14158 20.489 5.11473 20.3108 4.21187 19.9593C3.30742 19.6062 2.54603 19.1099 1.92451 18.4689C1.30459 17.8279 0.834085 17.0532 0.514586 16.1434C0.196677 15.2336 0.0361328 14.2315 0.0361328 13.134H0.0361328Z" fill="#0027A0"/>
<path d="M26.2131 8.84405C25.5201 8.84405 24.8858 9.0222 24.3104 9.37373C23.7366 9.72685 23.3376 10.2565 23.1199 10.9628V16.7558C23.3742 16.961 23.743 17.1232 24.2278 17.2425C24.711 17.3634 25.2006 17.4239 25.6917 17.4239C26.2036 17.4239 26.6789 17.3364 27.1176 17.1598C27.5547 16.9833 27.9378 16.7001 28.2668 16.3104C28.5943 15.9207 28.8518 15.4276 29.033 14.8327C29.2158 14.2394 29.308 13.5237 29.308 12.6886C29.308 11.4638 29.0155 10.5174 28.4321 9.84773C27.8472 9.17967 27.108 8.84405 26.2131 8.84405ZM16.8555 6.17181H22.058L22.4697 7.84355H22.6812C23.6301 6.46766 25.164 5.7821 27.2813 5.7821C28.1206 5.7821 28.8915 5.91572 29.5957 6.18453C30.2982 6.45494 30.8991 6.87645 31.4014 7.45385C31.9037 8.02806 32.2931 8.75339 32.5665 9.62664C32.8399 10.4983 32.9766 11.5465 32.9766 12.7729C32.9766 13.9627 32.8209 15.0347 32.5109 15.9891C32.2009 16.9467 31.7543 17.7595 31.1693 18.4275C30.586 19.0956 29.8722 19.6062 29.033 19.9593C28.1937 20.3108 27.2368 20.489 26.1575 20.489C25.0067 20.489 23.9925 20.2074 23.1199 19.6889V27.071H19.5593V9.23534H16.8555V6.17181Z" fill="#0027A0"/>
<path d="M43.6909 8.67863C43.2172 8.67863 42.7689 8.74543 42.3493 8.87745C41.9296 9.00788 41.5513 9.20353 41.2143 9.45962C40.8758 9.71412 40.5976 10.0307 40.3782 10.4092C40.1605 10.7878 39.965 11.3143 39.9061 11.6865H46.7316C46.7316 10.7592 46.4805 10.0275 45.9782 9.48825C45.4759 8.94903 44.7145 8.67863 43.6909 8.67863ZM49.6055 18.6216C49.3687 18.8443 49.0635 19.0638 48.69 19.2753C48.3132 19.4901 47.8777 19.6905 47.3754 19.8766C46.8731 20.0611 46.32 20.2106 45.7175 20.3204C45.1167 20.4317 44.4761 20.489 43.8021 20.489C42.6338 20.489 41.5879 20.3204 40.6659 19.9864C39.744 19.6523 38.9635 19.1656 38.3246 18.5246C37.6856 17.8851 37.1976 17.1137 36.859 16.2134C36.522 15.3131 36.3535 14.2872 36.3535 13.134C36.3535 11.9092 36.5443 10.8355 36.9273 9.91613C37.3104 8.99993 37.8366 8.23325 38.5026 7.61927C39.1686 7.00688 39.9491 6.54719 40.844 6.2402C41.7389 5.9348 42.7069 5.7821 43.7465 5.7821C44.4395 5.7821 45.1564 5.87436 45.8955 6.06046C46.6363 6.24657 47.315 6.56469 47.9365 7.01961C48.5549 7.47612 49.0635 8.08373 49.4561 8.84405C49.8487 9.60755 50.0443 10.5715 50.0443 11.7422C50.0443 12.5407 49.9521 13.4044 49.7709 14.3333H39.9125C39.9316 14.9266 40.054 15.4276 40.2829 15.8364C40.5102 16.2452 40.8106 16.5792 41.1873 16.8401C41.5609 17.0994 41.99 17.2902 42.4733 17.4111C42.9565 17.532 43.4731 17.5925 44.0199 17.5925C45.6062 17.5925 47.2673 17.0803 48.4293 16.2548L49.6055 18.6216Z" fill="#0027A0"/>
<path d="M53.3115 6.17181H58.7128L59.1229 8.00898H59.3168C59.7365 7.41567 60.3389 6.89554 61.1241 6.45017C61.9094 6.0032 62.8504 5.7821 63.944 5.7821C64.6211 5.7821 65.2554 5.87436 65.8467 6.06046C66.4412 6.24657 66.9482 6.55197 67.3679 6.97984C67.7875 7.40613 68.1213 7.98671 68.3661 8.71998C68.6141 9.45485 68.7365 10.3583 68.7365 11.4352V20.0977H65.1759V12.1891C65.1759 11.055 64.9247 10.2374 64.424 9.73639C63.9217 9.23694 63.2875 8.98403 62.5214 8.98403C61.8458 8.98403 61.2291 9.18445 60.6743 9.5821C60.1164 9.98294 59.7365 10.4808 59.5362 11.0725V20.0977H55.9756V9.23694H53.3115V6.17181Z" fill="#0027A0"/>
<path d="M29.5544 52.077C28.8074 52.6544 27.9299 53.0855 26.9253 53.3734C25.9223 53.6613 24.8716 53.8044 23.778 53.8044C22.5906 53.8044 21.5368 53.6279 20.6148 53.2747C19.6929 52.9216 18.9172 52.4269 18.2877 51.7843C17.6567 51.1449 17.1782 50.3687 16.8508 49.4588C16.5202 48.5506 16.3564 47.5469 16.3564 46.451C16.3564 45.2803 16.5472 44.2416 16.9319 43.3318C17.3165 42.4219 17.849 41.6521 18.5341 41.019C19.2176 40.3891 20.0267 39.9088 20.9582 39.5843C21.8897 39.2598 22.9006 39.0975 23.9974 39.0975C25.0195 39.0975 25.978 39.22 26.8729 39.4602C27.7646 39.7004 28.4513 39.9342 28.9266 40.1553V45.0592H25.9128V42.4967C25.3469 42.3663 24.781 42.301 24.2152 42.301C23.7033 42.301 23.1978 42.3806 22.6956 42.538C22.1933 42.6955 21.7466 42.9452 21.354 43.2888C20.9614 43.634 20.6419 44.065 20.3971 44.5852C20.1491 45.1053 20.0267 45.7272 20.0267 46.451C20.0267 47.0459 20.1268 47.593 20.3271 48.0957C20.529 48.5951 20.8104 49.031 21.1759 49.4032C21.54 49.7754 21.993 50.0681 22.5318 50.2812C23.0691 50.4943 23.6668 50.6025 24.3248 50.6025C25.366 50.6025 26.2196 50.453 26.8856 50.1571C27.55 49.8597 28.0491 49.5988 28.3782 49.3777L29.5544 52.077Z" fill="#0027A0"/>
<path d="M30.8438 31.8601H37.3323V41.0475H37.4404C37.8791 40.4542 38.464 39.9802 39.1936 39.6255C39.9232 39.274 40.7816 39.0974 41.7671 39.0974C42.4602 39.0974 43.1008 39.1913 43.6857 39.3758C44.2675 39.5619 44.7714 39.8689 45.191 40.2952C45.6107 40.723 45.9381 41.302 46.1765 42.0353C46.4134 42.7702 46.5326 43.6752 46.5326 44.7521V53.4146H42.972V45.5044C42.972 44.3703 42.7352 43.5543 42.2615 43.0517C41.7862 42.5522 41.1663 42.3009 40.3985 42.3009C39.723 42.3009 39.1015 42.5093 38.5372 42.9276C37.9697 43.3444 37.5691 43.8804 37.3323 44.5294V53.4146H33.7717V34.8107H30.8438V31.8601Z" fill="#0027A0"/>
<path d="M53.7204 46.451C53.7204 47.0634 53.8031 47.6312 53.9668 48.1498C54.1321 48.6699 54.3674 49.1248 54.6805 49.5145C54.9889 49.9042 55.364 50.2064 55.8012 50.4212C56.2399 50.6343 56.7422 50.7409 57.308 50.7409C58.3667 50.7409 59.2282 50.3973 59.8958 49.7102C60.5618 49.023 60.8956 47.9366 60.8956 46.451C60.8956 45.1689 60.5841 44.1366 59.9642 43.3445C59.3427 42.5555 58.4589 42.1611 57.308 42.1611C56.7962 42.1611 56.3225 42.2406 55.8838 42.3981C55.4467 42.5555 55.0668 42.8116 54.7473 43.1648C54.4294 43.5163 54.1766 43.9617 53.9938 44.5009C53.8126 45.0401 53.7204 45.6891 53.7204 46.451ZM50.0518 46.451C50.0518 45.2819 50.225 44.2416 50.5715 43.3318C50.9181 42.4219 51.4108 41.6521 52.0514 41.019C52.6888 40.3891 53.4518 39.9088 54.3372 39.5859C55.2226 39.2598 56.2128 39.0975 57.308 39.0975C58.4589 39.0975 59.4857 39.2741 60.387 39.6256C61.2914 39.9803 62.0544 40.4766 62.6743 41.116C63.2959 41.7571 63.7648 42.5333 64.0859 43.4415C64.4054 44.3514 64.5643 45.355 64.5643 46.451C64.5643 47.6217 64.3895 48.6604 64.043 49.5702C63.6964 50.4816 63.2037 51.2515 62.5663 51.883C61.9257 52.5144 61.1643 52.9932 60.2789 53.3177C59.3935 53.6422 58.4032 53.8044 57.308 53.8044C56.1572 53.8044 55.1304 53.6279 54.2275 53.2747C53.323 52.9232 52.5617 52.4269 51.9401 51.7843C51.3202 51.1449 50.8497 50.3687 50.5302 49.4588C50.2123 48.5506 50.0518 47.5469 50.0518 46.451Z" fill="#0027A0"/>
<path d="M71.1501 46.451C71.1501 47.0634 71.2312 47.6312 71.3949 48.1498C71.5602 48.6699 71.7971 49.1248 72.1086 49.5145C72.4186 49.9042 72.7921 50.2064 73.2308 50.4212C73.6679 50.6343 74.1718 50.7409 74.7361 50.7409C75.7963 50.7409 76.6579 50.3973 77.3239 49.7102C77.9899 49.023 78.3237 47.9366 78.3237 46.451C78.3237 45.1689 78.0122 44.1366 77.3922 43.3445C76.7707 42.5555 75.8869 42.1611 74.7361 42.1611C74.2243 42.1611 73.7506 42.2406 73.3135 42.3981C72.8748 42.5555 72.4949 42.8116 72.177 43.1648C71.8575 43.5163 71.6063 43.9617 71.4219 44.5009C71.2407 45.0401 71.1501 45.6891 71.1501 46.451ZM67.4814 46.451C67.4814 45.2819 67.6531 44.2416 67.9996 43.3318C68.3462 42.4219 68.8389 41.6521 69.4795 41.019C70.1169 40.3891 70.8799 39.9088 71.7653 39.5859C72.6506 39.2598 73.6409 39.0975 74.7361 39.0975C75.8869 39.0975 76.9138 39.2741 77.8167 39.6256C78.7195 39.9803 79.4825 40.4766 80.1024 41.116C80.7239 41.7571 81.1928 42.5333 81.5139 43.4415C81.8334 44.3514 81.9924 45.355 81.9924 46.451C81.9924 47.6217 81.8191 48.6604 81.4726 49.5702C81.1261 50.4816 80.6317 51.2515 79.9943 51.883C79.3537 52.5144 78.5939 52.9932 77.7086 53.3177C76.8216 53.6422 75.8329 53.8044 74.7361 53.8044C73.5869 53.8044 72.56 53.6279 71.6556 53.2747C70.7511 52.9232 69.9913 52.4269 69.3698 51.7843C68.7499 51.1449 68.2778 50.3687 67.9599 49.4588C67.6404 48.5506 67.4814 47.5469 67.4814 46.451Z" fill="#0027A0"/>
<path d="M82.8486 33.9135H89.6312V47.5085C89.6312 48.377 89.7965 49.3313 90.2782 49.8801C90.6469 50.2984 91.4083 50.6022 92.0855 50.6022C93.2586 50.6022 93.9325 50.1966 94.4777 49.9039L95.8193 52.4108C95.8193 52.4108 94.2123 53.8041 91.3845 53.8041C88.6886 53.8041 86.2359 52.1849 86.2359 48.342V36.977H82.8486V33.9135Z" fill="#0027A0"/>
<path d="M11.9359 43.5082L13.5334 40.89C13.5334 40.89 11.1856 39.0051 7.37705 39.0051C3.56691 39.0051 1.29545 40.9918 1.29545 43.3427C1.29545 45.9514 4.32354 47.0521 6.87793 47.7679C9.34491 48.4582 10.2207 48.7874 10.2207 49.6655C10.2207 50.2651 9.47843 50.9125 8.01446 50.9125C6.36769 50.9125 3.9484 49.8929 2.62908 48.7954L0.828125 51.3754C0.828125 51.3754 3.55261 53.9999 7.91591 53.9999C11.4526 53.9999 13.7575 52.0896 13.7575 49.5112C13.7575 47.8124 12.5717 46.2854 8.8903 45.1783C6.56638 44.48 4.84332 44.1842 4.84332 43.1741C4.84332 42.5204 5.65875 41.9541 7.38977 41.9541C8.80605 41.9541 10.6197 42.5952 11.9359 43.5082Z" fill="#0027A0"/>
<path d="M85.1056 13.312C85.1056 8.79941 87.1767 4.77196 90.4178 2.12675L87.9 0.222778C84.0851 3.3054 81.6436 8.02318 81.6436 13.312C81.6436 18.6358 84.1153 23.379 87.9715 26.4601L90.44 24.5163C87.1863 21.8695 85.1056 17.8357 85.1056 13.312Z" fill="#FF5A5F"/>
<path d="M130.501 13.312C130.501 8.79941 128.43 4.77196 125.188 2.12675L127.705 0.222778C131.522 3.3054 133.963 8.02318 133.963 13.312C133.963 18.6358 131.49 23.379 127.634 26.4601L125.167 24.5163C128.421 21.8695 130.501 17.8357 130.501 13.312Z" fill="#FF5A5F"/>
<path d="M95.9411 20.7447L94.2275 23.2054C95.2162 23.9832 97.0124 24.7833 98.7832 24.7833C102.395 24.7833 104.935 22.9127 104.935 18.3461V7.08765H95.5055V9.88873H101.69V18.1759C101.69 20.3232 100.732 21.7341 98.6052 21.7341C97.4496 21.7341 96.3114 21.0151 95.9411 20.7447Z" fill="#FF5A5F"/>
<path d="M105.323 2.4766C105.323 3.84453 104.215 4.95478 102.848 4.95478C101.481 4.95478 100.373 3.84453 100.373 2.4766C100.373 1.10866 101.481 0 102.848 0C104.215 0 105.323 1.10866 105.323 2.4766Z" fill="#FF5A5F"/>
<path d="M119.55 11.0691L121.088 8.54952C121.088 8.54952 118.828 6.73462 115.163 6.73462C111.495 6.73462 109.308 8.64655 109.308 10.91C109.308 13.4216 112.222 14.481 114.681 15.1697C117.056 15.833 117.9 16.1511 117.9 16.9957C117.9 17.5731 117.266 18.1569 115.857 18.1569C114.271 18.1569 111.861 17.2152 110.593 16.1591L108.858 18.6404C108.858 18.6404 111.481 21.1679 115.681 21.1679C119.086 21.1679 121.303 19.3292 121.303 16.8478C121.303 15.211 120.162 13.7429 116.619 12.6772C114.382 12.0044 112.723 11.7196 112.723 10.7478C112.723 10.1195 113.508 9.57388 115.174 9.57388C116.537 9.57388 118.283 10.1895 119.55 11.0691Z" fill="#FF5A5F"/>
</svg>